<?xml version="1.0" encoding="utf-8"?>
<!-- Generator: Adobe Illustrator 19.0.0, SVG Export Plug-In . SVG Version: 6.00 Build 0)  -->
<svg version="1.1" id="Layer_1" xmlns="http://www.w3.org/2000/svg" xmlns:xlink="http://www.w3.org/1999/xlink" x="0px" y="0px"
	 viewBox="-561 347 100 100" style="enable-background:new -561 347 100 100;" xml:space="preserve">
<style type="text/css">
	.st0{fill:#EFB21B;}
</style>
<path class="st0" d="M-496.2,400.8c0,0-0.1,3.8-3.4,5.6h-29v-9.9h-2.7l-2-2.7h-4.7l-0.4-0.4v-11.3h0.9v-0.9h-0.5h-1.8h-1.3v0.9h0.9
	v7.9l0.3,0.2h-5l-1,5.4h-3.4l-1.1,2.7h-3.1l-0.2,2.7h-1.8v2.7h-0.5c0,0-0.2,9,6.2,9c6.4,0,72.9,0,72.9,0s1.9-5.1,3.9-7.2
	c2-2.2,6.9-7.9,6.9-7.9C-478.5,396.3-496.2,400.8-496.2,400.8z"/>
</svg>
