<?xml version="1.0" encoding="utf-8"?>
<!-- Generator: Adobe Illustrator 19.0.0, SVG Export Plug-In . SVG Version: 6.00 Build 0)  -->
<svg version="1.1" id="Capa_1" xmlns="http://www.w3.org/2000/svg" xmlns:xlink="http://www.w3.org/1999/xlink" x="0px" y="0px"
	 viewBox="-599 385 24 24" style="enable-background:new -599 385 24 24;" xml:space="preserve">
<style type="text/css">
	.st0{fill:#02A225;}
</style>
<g>
	<g>
		<path class="st0" d="M-579,385h-16c-2.2,0-4,1.8-4,4v16c0,2.2,1.8,4,4,4h16c2.2,0,4-1.8,4-4v-16C-575,386.8-576.8,385-579,385z
			 M-577,405c0,1.1-0.9,2-2,2h-16c-1.1,0-2-0.9-2-2v-16c0-1.1,0.9-2,2-2h16c1.1,0,2,0.9,2,2V405z"/>
		<path class="st0" d="M-586.1,390.6c-0.3-0.5-0.7-0.5-1,0l-7,12.3c-0.3,0.5,0,0.9,0.5,0.9h14c0.5,0,0.8-0.4,0.5-0.9L-586.1,390.6z
			 M-585.7,394l-0.3,5.4h-1.4l-0.3-5.4H-585.7z M-586.6,402.2c-0.6,0-1.1-0.5-1.1-1.1c0-0.6,0.4-1.1,1.1-1.1c0.6,0,1.1,0.5,1.1,1.1
			C-585.6,401.7-586,402.2-586.6,402.2z"/>
	</g>
</g>
</svg>
